<svg width="33" height="32" viewBox="0 0 33 32" fill="none" xmlns="http://www.w3.org/2000/svg">
<path d="M25.0699 17.88C24.0219 20.004 22.6019 22.12 21.1499 24.02C19.771 25.81 18.2983 27.5258 16.7379 29.16C15.1775 27.5258 13.7048 25.81 12.3259 24.02C10.8739 22.12 9.45392 20.004 8.40592 17.88C7.34592 15.734 6.73792 13.724 6.73792 12C6.73792 9.34784 7.79148 6.8043 9.66685 4.92893C11.5422 3.05357 14.0858 2 16.7379 2C19.3901 2 21.9336 3.05357 23.809 4.92893C25.6843 6.8043 26.7379 9.34784 26.7379 12C26.7379 13.724 26.1279 15.734 25.0699 17.88ZM16.7379 32C16.7379 32 28.7379 20.628 28.7379 12C28.7379 8.8174 27.4736 5.76515 25.2232 3.51472C22.9728 1.26428 19.9205 0 16.7379 0C13.5553 0 10.5031 1.26428 8.25263 3.51472C6.0022 5.76515 4.73792 8.8174 4.73792 12C4.73792 20.628 16.7379 32 16.7379 32Z" fill="black"/>
<path d="M16.7379 16C15.677 16 14.6596 15.5786 13.9095 14.8284C13.1593 14.0783 12.7379 13.0609 12.7379 12C12.7379 10.9391 13.1593 9.92172 13.9095 9.17157C14.6596 8.42143 15.677 8 16.7379 8C17.7988 8 18.8162 8.42143 19.5663 9.17157C20.3165 9.92172 20.7379 10.9391 20.7379 12C20.7379 13.0609 20.3165 14.0783 19.5663 14.8284C18.8162 15.5786 17.7988 16 16.7379 16ZM16.7379 18C18.3292 18 19.8553 17.3679 20.9806 16.2426C22.1058 15.1174 22.7379 13.5913 22.7379 12C22.7379 10.4087 22.1058 8.88258 20.9806 7.75736C19.8553 6.63214 18.3292 6 16.7379 6C15.1466 6 13.6205 6.63214 12.4953 7.75736C11.3701 8.88258 10.7379 10.4087 10.7379 12C10.7379 13.5913 11.3701 15.1174 12.4953 16.2426C13.6205 17.3679 15.1466 18 16.7379 18Z" fill="black"/>
</svg>
