<svg width="32" height="32" viewBox="0 0 32 32" fill="none" xmlns="http://www.w3.org/2000/svg">
<path d="M5.65332 16.3333C5.12613 15.8096 4.70844 15.1863 4.42459 14.4995C4.14074 13.8128 3.9964 13.0764 3.99999 12.3333C3.99999 10.8304 4.59701 9.3891 5.65972 8.3264C6.72242 7.26369 8.16376 6.66667 9.66666 6.66667C11.7733 6.66667 13.6133 7.81334 14.5867 9.52H16.08C16.5748 8.65208 17.2908 7.93079 18.155 7.42957C19.0193 6.92836 20.0009 6.66512 21 6.66667C22.5029 6.66667 23.9442 7.26369 25.0069 8.3264C26.0696 9.3891 26.6667 10.8304 26.6667 12.3333C26.6667 13.8933 26 15.3333 25.0133 16.3333L15.3333 26L5.65332 16.3333ZM25.9467 17.28C27.2133 16 28 14.2667 28 12.3333C28 10.4768 27.2625 8.69634 25.9497 7.38359C24.637 6.07083 22.8565 5.33334 21 5.33334C18.6667 5.33334 16.6 6.46667 15.3333 8.22667C14.6868 7.32867 13.8355 6.59776 12.85 6.09457C11.8645 5.59139 10.7732 5.33043 9.66666 5.33334C7.81014 5.33334 6.02966 6.07083 4.71691 7.38359C3.40415 8.69634 2.66666 10.4768 2.66666 12.3333C2.66666 14.2667 3.45332 16 4.71999 17.28L15.3333 27.8933L25.9467 17.28Z" stroke="#C40000"/>
</svg>
