<svg width="36" height="35" viewBox="0 0 36 35" fill="none" xmlns="http://www.w3.org/2000/svg">
<path d="M13.3293 24.7746C9.87143 24.7746 6.94061 23.574 4.53684 21.1729C2.1345 18.7733 0.933334 15.8448 0.933334 12.3873C0.933334 8.92979 2.1345 6.00052 4.53684 3.59945C6.93917 1.19837 9.86999 -0.00143992 13.3293 1.29684e-06C16.7886 0.00144252 19.7187 1.20198 22.1196 3.60161C24.5205 6.00124 25.7216 8.92979 25.7231 12.3873C25.7231 13.889 25.457 15.3425 24.925 16.7477C24.3929 18.1529 23.6935 19.3549 22.8269 20.3536L35.6078 33.1235C35.8097 33.3253 35.9179 33.5739 35.9323 33.8694C35.9453 34.1619 35.8371 34.4235 35.6078 34.6541C35.3771 34.8847 35.1219 35 34.8422 35C34.5624 35 34.3072 34.8847 34.0765 34.6541L21.2977 21.882C20.2162 22.803 18.9725 23.5156 17.5665 24.0201C16.1606 24.5245 14.7475 24.7767 13.3271 24.7767M13.3271 22.6149C16.1967 22.6149 18.6199 21.6277 20.5969 19.6532C22.5724 17.6787 23.5601 15.2567 23.5601 12.3873C23.5601 9.51781 22.5731 7.09656 20.599 5.12353C18.625 3.15051 16.2024 2.16327 13.3315 2.16183C10.4605 2.16183 8.03724 3.14906 6.06173 5.12353C4.08622 7.098 3.09774 9.51925 3.0963 12.3873C3.09486 15.2553 4.08261 17.6765 6.05956 19.651C8.03652 21.6255 10.459 22.6127 13.3271 22.6127" fill="#4E4E4E"/>
</svg>
