<svg width="70" height="70" viewBox="0 0 70 70" fill="none" xmlns="http://www.w3.org/2000/svg">
<path d="M19.4742 33.7601C19.4742 33.7601 33.7155 27.7619 38.6546 25.6498C40.5481 24.8051 46.9689 22.1016 46.9689 22.1016C46.9689 22.1016 49.9325 20.9189 49.6855 23.7912C49.6031 24.974 48.9446 29.1136 48.2861 33.5912C47.2982 39.9274 46.2281 46.8549 46.2281 46.8549C46.2281 46.8549 46.0634 48.798 44.664 49.136C43.2646 49.4739 40.9596 47.9533 40.5481 47.6152C40.2187 47.3619 34.3741 43.5601 32.2338 41.7015C31.6575 41.1946 30.999 40.1809 32.316 38.9981C35.2796 36.2102 38.8193 32.7464 40.9596 30.5499C41.9475 29.536 42.9352 27.1705 38.8193 30.0429C32.9747 34.1826 27.2123 38.0688 27.2123 38.0688C27.2123 38.0688 25.8951 38.9135 23.4256 38.1532C20.9559 37.393 18.0747 36.3791 18.0747 36.3791C18.0747 36.3791 16.0992 35.1119 19.4742 33.7601Z" fill="black"/>
</svg>
