<svg width="70" height="70" viewBox="0 0 70 70" fill="none" xmlns="http://www.w3.org/2000/svg">
<path fill-rule="evenodd" clip-rule="evenodd" d="M55.4248 24.921C55.7206 23.9956 55.4248 23.3157 54.0169 23.3157H49.3614C48.1776 23.3157 47.6319 23.9031 47.3359 24.5508C47.3359 24.5508 44.9684 29.9641 41.6145 33.4804C40.5295 34.4983 40.0362 34.8221 39.4443 34.8221C39.1484 34.8221 38.72 34.4983 38.72 33.573V24.921C38.72 23.8106 38.3765 23.3157 37.39 23.3157H30.0741C29.3344 23.3157 28.8895 23.8311 28.8895 24.3195C28.8895 25.3722 30.5663 25.6149 30.7392 28.5761V35.0073C30.7392 36.4173 30.4677 36.6729 29.8759 36.6729C28.2976 36.6729 24.4585 31.2354 22.1816 25.0135C21.7353 23.8042 21.2878 23.3157 20.0979 23.3157H15.4424C14.1122 23.3157 13.8462 23.9031 13.8462 24.5508C13.8462 25.7075 15.4245 31.4447 21.1952 39.0325C25.0422 44.2144 30.4625 47.0234 35.3947 47.0234C38.354 47.0234 38.7201 46.3995 38.7201 45.3248V41.4084C38.7201 40.1606 39.0005 39.9116 39.9376 39.9116C40.6281 39.9116 41.8118 40.2355 44.5739 42.7339C47.7305 45.695 48.2509 47.0234 50.0264 47.0234H54.682C56.0121 47.0234 56.6772 46.3995 56.2936 45.1683C55.8737 43.9412 54.3666 42.1608 52.3668 40.0504C51.2817 38.8474 49.6541 37.552 49.1608 36.9041C48.4703 36.0714 48.6676 35.7012 49.1608 34.961C49.1608 34.961 54.8329 27.4657 55.4248 24.921Z" fill="black"/>
</svg>
