<svg width="70" height="70" viewBox="0 0 70 70" fill="none" xmlns="http://www.w3.org/2000/svg">
<path d="M17.5001 51.2042L20.0113 41.8671C17.9861 38.2298 17.3427 33.9854 18.1991 29.9127C19.0555 25.84 21.3543 22.2123 24.6737 19.6952C27.993 17.178 32.1103 15.9404 36.27 16.2093C40.4296 16.4782 44.3526 18.2356 47.3191 21.1591C50.2856 24.0826 52.0966 27.976 52.4197 32.125C52.7429 36.2739 51.5565 40.4 49.0784 43.7462C46.6002 47.0923 42.9965 49.4341 38.9285 50.3417C34.8605 51.2493 30.6011 50.6619 26.9318 48.6873L17.5001 51.2042ZM27.3866 45.1933L27.9699 45.5388C30.6276 47.1114 33.7318 47.7622 36.7986 47.3897C39.8655 47.0172 42.7228 45.6424 44.9253 43.4794C47.1277 41.3165 48.5516 38.4869 48.9751 35.4316C49.3986 32.3764 48.7978 29.2671 47.2664 26.5883C45.735 23.9095 43.3591 21.8117 40.5088 20.6218C37.6585 19.4319 34.4939 19.2167 31.5083 20.0098C28.5227 20.8029 25.8838 22.5596 24.0027 25.0064C22.1216 27.4531 21.1041 30.4524 21.1087 33.5367C21.1062 36.0941 21.8146 38.6021 23.1552 40.7814L23.521 41.3834L22.1171 46.5949L27.3866 45.1933Z" fill="black"/>
<path fill-rule="evenodd" clip-rule="evenodd" d="M41.5438 35.9343C41.2019 35.6589 40.8015 35.4651 40.3732 35.3676C39.9448 35.2701 39.4999 35.2715 39.0722 35.3717C38.4296 35.6382 38.0143 36.6449 37.5991 37.1483C37.5115 37.269 37.3829 37.3536 37.2373 37.3863C37.0916 37.419 36.9391 37.3976 36.8082 37.326C34.4555 36.406 32.4835 34.719 31.2124 32.5389C31.104 32.4029 31.0527 32.2302 31.0693 32.0571C31.0859 31.8841 31.1691 31.7242 31.3014 31.6112C31.7645 31.1534 32.1046 30.5865 32.29 29.9628C32.3312 29.2749 32.1734 28.5897 31.8353 27.9888C31.5739 27.1465 31.0765 26.3964 30.4017 25.8273C30.0537 25.671 29.6679 25.6186 29.2907 25.6764C28.9135 25.7342 28.5612 25.8997 28.2761 26.153C27.7813 26.5792 27.3885 27.1108 27.1267 27.7087C26.8649 28.3066 26.7408 28.9554 26.7635 29.6075C26.765 29.9737 26.8115 30.3383 26.9019 30.6932C27.1315 31.5459 27.4845 32.3606 27.9499 33.1114C28.2856 33.6866 28.6519 34.2434 29.0473 34.7795C30.3321 36.5403 31.9471 38.0353 33.8027 39.1815C34.7338 39.764 35.729 40.2376 36.7686 40.593C37.8486 41.0817 39.0409 41.2693 40.219 41.1358C40.8903 41.0344 41.5263 40.7698 42.071 40.3653C42.6158 39.9609 43.0527 39.4289 43.3432 38.8163C43.5138 38.4463 43.5656 38.0325 43.4915 37.6319C43.3135 36.8127 42.2161 36.3291 41.5438 35.9343Z" fill="black"/>
</svg>
